<mxfile host="app.diagrams.net" agent="Mozilla/5.0 (Windows NT 10.0; Win64; x64) AppleWebKit/537.36 (KHTML, like Gecko) Chrome/129.0.0.0 Safari/537.36" version="24.7.14">
  <diagram name="Page-1" id="9361dd3d-8414-5efd-6122-117bd74ce7a7">
    <mxGraphModel dx="1178" dy="1168" grid="1" gridSize="10" guides="1" tooltips="1" connect="1" arrows="1" fold="1" page="0" pageScale="1.5" pageWidth="826" pageHeight="1169" background="none" math="0" shadow="0">
      <root>
        <mxCell id="0" />
        <mxCell id="1" parent="0" />
        <mxCell id="5XtedRIcKXzQ0kHw2gm3-89" value="Client" style="shape=umlActor;verticalLabelPosition=bottom;verticalAlign=top;html=1;outlineConnect=0;" vertex="1" parent="1">
          <mxGeometry y="80" width="90" height="140" as="geometry" />
        </mxCell>
        <mxCell id="5XtedRIcKXzQ0kHw2gm3-90" value="Change account setting" style="ellipse;whiteSpace=wrap;html=1;" vertex="1" parent="1">
          <mxGeometry x="220" y="50" width="120" height="80" as="geometry" />
        </mxCell>
        <mxCell id="5XtedRIcKXzQ0kHw2gm3-92" value="Make an account" style="ellipse;whiteSpace=wrap;html=1;" vertex="1" parent="1">
          <mxGeometry x="210" y="-50" width="120" height="80" as="geometry" />
        </mxCell>
        <mxCell id="5XtedRIcKXzQ0kHw2gm3-93" value="Delete account" style="ellipse;whiteSpace=wrap;html=1;" vertex="1" parent="1">
          <mxGeometry x="230" y="470" width="120" height="80" as="geometry" />
        </mxCell>
        <mxCell id="5XtedRIcKXzQ0kHw2gm3-94" value="Add budget" style="ellipse;whiteSpace=wrap;html=1;" vertex="1" parent="1">
          <mxGeometry x="230" y="160" width="120" height="80" as="geometry" />
        </mxCell>
        <mxCell id="5XtedRIcKXzQ0kHw2gm3-95" value="Budget summary" style="ellipse;whiteSpace=wrap;html=1;" vertex="1" parent="1">
          <mxGeometry x="230" y="270" width="120" height="80" as="geometry" />
        </mxCell>
        <mxCell id="5XtedRIcKXzQ0kHw2gm3-96" value="Check expenses&amp;nbsp;" style="ellipse;whiteSpace=wrap;html=1;" vertex="1" parent="1">
          <mxGeometry x="230" y="380" width="120" height="80" as="geometry" />
        </mxCell>
        <mxCell id="5XtedRIcKXzQ0kHw2gm3-97" value="" style="endArrow=none;html=1;rounded=0;entryX=0.15;entryY=0.942;entryDx=0;entryDy=0;entryPerimeter=0;" edge="1" parent="1" target="5XtedRIcKXzQ0kHw2gm3-92">
          <mxGeometry width="50" height="50" relative="1" as="geometry">
            <mxPoint x="110" y="140" as="sourcePoint" />
            <mxPoint x="160" y="90" as="targetPoint" />
          </mxGeometry>
        </mxCell>
        <mxCell id="5XtedRIcKXzQ0kHw2gm3-98" value="" style="endArrow=none;html=1;rounded=0;entryX=0;entryY=0.733;entryDx=0;entryDy=0;entryPerimeter=0;" edge="1" parent="1" target="5XtedRIcKXzQ0kHw2gm3-90">
          <mxGeometry width="50" height="50" relative="1" as="geometry">
            <mxPoint x="120" y="150" as="sourcePoint" />
            <mxPoint x="170" y="100" as="targetPoint" />
          </mxGeometry>
        </mxCell>
        <mxCell id="5XtedRIcKXzQ0kHw2gm3-99" value="" style="endArrow=none;html=1;rounded=0;entryX=0;entryY=0.5;entryDx=0;entryDy=0;" edge="1" parent="1" target="5XtedRIcKXzQ0kHw2gm3-94">
          <mxGeometry width="50" height="50" relative="1" as="geometry">
            <mxPoint x="120" y="170" as="sourcePoint" />
            <mxPoint x="170" y="120" as="targetPoint" />
          </mxGeometry>
        </mxCell>
        <mxCell id="5XtedRIcKXzQ0kHw2gm3-100" value="" style="endArrow=none;html=1;rounded=0;entryX=0.006;entryY=0.225;entryDx=0;entryDy=0;entryPerimeter=0;" edge="1" parent="1" target="5XtedRIcKXzQ0kHw2gm3-95">
          <mxGeometry width="50" height="50" relative="1" as="geometry">
            <mxPoint x="120" y="180" as="sourcePoint" />
            <mxPoint x="160" y="140" as="targetPoint" />
          </mxGeometry>
        </mxCell>
        <mxCell id="5XtedRIcKXzQ0kHw2gm3-101" value="" style="endArrow=none;html=1;rounded=0;entryX=0.072;entryY=0.108;entryDx=0;entryDy=0;entryPerimeter=0;" edge="1" parent="1" target="5XtedRIcKXzQ0kHw2gm3-96">
          <mxGeometry width="50" height="50" relative="1" as="geometry">
            <mxPoint x="110" y="200" as="sourcePoint" />
            <mxPoint x="150" y="160" as="targetPoint" />
          </mxGeometry>
        </mxCell>
        <mxCell id="5XtedRIcKXzQ0kHw2gm3-102" value="" style="endArrow=none;html=1;rounded=0;entryX=0.067;entryY=0.3;entryDx=0;entryDy=0;entryPerimeter=0;" edge="1" parent="1" target="5XtedRIcKXzQ0kHw2gm3-93">
          <mxGeometry width="50" height="50" relative="1" as="geometry">
            <mxPoint x="110" y="230" as="sourcePoint" />
            <mxPoint x="370" y="-40" as="targetPoint" />
          </mxGeometry>
        </mxCell>
        <mxCell id="5XtedRIcKXzQ0kHw2gm3-104" value="&lt;font style=&quot;font-size: 16px;&quot;&gt;Personal Budget Management&amp;nbsp;&lt;/font&gt;" style="text;html=1;align=center;verticalAlign=middle;whiteSpace=wrap;rounded=0;" vertex="1" parent="1">
          <mxGeometry x="10" y="-110" width="390" height="30" as="geometry" />
        </mxCell>
      </root>
    </mxGraphModel>
  </diagram>
</mxfile>
